<svg xmlns="http://www.w3.org/2000/svg" width="32" height="32" viewBox="0 0 8.467 8.467"><g transform="translate(-17.197 -16.934)"><path fill="#0088d1" fill-opacity=".98" d="m 21.431766,17.463017 c -2.042621,0 -3.7052,1.660511 -3.7052,3.703133 a 0.26460981,0.26460981 0 0 0 0,0.0057 c 0.01474,0.748634 0.443669,1.594069 1.017509,2.308903 l -0.939477,0.939477 a 0.26460981,0.26460981 0 0 0 0.187585,0.451136 c 1.129885,-3e-6 2.35707,4e-6 3.439583,0 2.042621,-3e-6 3.703134,-1.66258 3.703134,-3.7052 0,-2.042622 -1.660513,-3.703134 -3.703134,-3.703134 z" color="#000" font-family="sans-serif" font-weight="400" overflow="visible" white-space="normal" style="line-height:normal;font-variant-ligatures:normal;font-variant-position:normal;font-variant-caps:normal;font-variant-numeric:normal;font-variant-alternates:normal;font-feature-settings:normal;text-indent:0;text-align:start;text-decoration-line:none;text-decoration-style:solid;text-decoration-color:#000;text-transform:none;text-orientation:mixed;shape-padding:0;isolation:auto;mix-blend-mode:normal"/><path fill="#c8d4dd" style="line-height:normal;font-variant-ligatures:normal;font-variant-position:normal;font-variant-caps:normal;font-variant-numeric:normal;font-variant-alternates:normal;font-feature-settings:normal;text-indent:0;text-align:start;text-decoration-line:none;text-decoration-style:solid;text-decoration-color:#000;text-transform:none;text-orientation:mixed;shape-padding:0;isolation:auto;mix-blend-mode:normal" d="m 19.552812,19.84375 a 0.26500142,0.26500142 0 0 0 0.02739,0.529166 h 1.58595 a 0.2646485,0.2646485 0 1 0 0,-0.529166 H 19.5802 a 0.26460981,0.26460981 0 0 0 -0.02739,0 z m 2.408121,0 a 0.2646485,0.2646485 0 1 0 0,0.529166 h 1.316199 a 0.2646485,0.2646485 0 1 0 0,-0.529166 z m -2.671671,1.05885 a 0.26495282,0.26495282 0 0 0 0.02532,0.529166 h 4.234367 a 0.2646485,0.2646485 0 1 0 0,-0.529166 h -4.234366 a 0.26460981,0.26460981 0 0 0 -0.02532,0 z m 0.26355,1.058333 A 0.26500092,0.26500092 0 0 0 19.5802,22.4901 h 1.58595 a 0.26464799,0.26464799 0 1 0 0,-0.529167 H 19.5802 a 0.26460981,0.26460981 0 0 0 -0.02739,0 z m 2.380733,0 a 0.26500092,0.26500092 0 0 0 0.02739,0.529167 H 22.4901 a 0.26464799,0.26464799 0 1 0 0,-0.529167 h -0.529167 a 0.26460981,0.26460981 0 0 0 -0.02739,0 z m 1.324467,0 a 0.26495232,0.26495232 0 0 0 0.02532,0.529167 0.26464799,0.26464799 0 1 0 0,-0.529167 0.26460981,0.26460981 0 0 0 -0.02532,0 z" color="#000" font-family="sans-serif" font-weight="400" overflow="visible" white-space="normal"/><path fill="#0178be" style="line-height:normal;font-variant-ligatures:normal;font-variant-position:normal;font-variant-caps:normal;font-variant-numeric:normal;font-variant-alternates:normal;font-feature-settings:normal;text-indent:0;text-align:start;text-decoration-line:none;text-decoration-style:solid;text-decoration-color:#000;text-transform:none;text-orientation:mixed;shape-padding:0;isolation:auto;mix-blend-mode:normal" d="M 90.869141,70.083984 67.291016,93.705078 a 1.0001001,1.0001001 0 0 0 0.710937,0.296875 c 4.270432,-1.1e-5 8.908612,1.5e-5 13,0 7.720142,-1.1e-5 13.996094,-6.283768 13.996094,-14.003906 0,-3.872016 -1.581075,-7.378212 -4.128906,-9.914063 z" color="#000" font-family="sans-serif" font-weight="400" overflow="visible" transform="scale(.26458)" white-space="normal"/><path fill="#aebdc0" style="line-height:normal;font-variant-ligatures:normal;font-variant-position:normal;font-variant-caps:normal;font-variant-numeric:normal;font-variant-alternates:normal;font-feature-settings:normal;text-indent:0;text-align:start;text-decoration-line:none;text-decoration-style:solid;text-decoration-color:#000;text-transform:none;text-orientation:mixed;shape-padding:0;isolation:auto;mix-blend-mode:normal" d="M87.904297 83.001953a1.0013946 1.0013946 0 0 0 .0957 2 1.0002444 1.0002444 0 1 0 0-2 1.0001001 1.0001001 0 0 0-.0957 0zM77.974609 83.001953l-1.996093 2h4.019531a1.0002444 1.0002444 0 1 0 0-2zm4.923829 0a1.0015783 1.0015783 0 0 0 .103515 2h2a1.0002444 1.0002444 0 1 0 0-2h-2a1.0001001 1.0001001 0 0 0-.103515 0zM81.96875 79.001953l-1.998047 2h9.033203a1.0002463 1.0002463 0 1 0 0-2zM85.962891 75l-1.996094 2h4.009765a1.0002463 1.0002463 0 1 0 0-2z" color="#000" font-family="sans-serif" font-weight="400" overflow="visible" transform="scale(.26458)" white-space="normal"/></g></svg>